<svg xmlns="http://www.w3.org/2000/svg" viewBox="0 0 500 500"><g id="freepik--background-complete--inject-5"><path d="M37.76,381.91l71.52-75.79a18,18,0,0,1,26.49,0l71.52,75.79Z" style="fill:#f5f5f5"></path><path d="M135.77,306.12a18,18,0,0,0-16.8-5.45c-2.67,10.76-4.39,26.45,5.39,33.78,15.67,11.75-3.73,23.82-3.73,35.64a30.18,30.18,0,0,0,3,11.82h83.67Z" style="fill:#ebebeb"></path><polygon points="98.8 382.85 69.53 382.85 69.53 295.13 98.8 281.12 98.8 382.85" style="fill:#f0f0f0"></polygon><rect x="74.63" y="300.39" width="5.46" height="5.46" style="fill:#fff"></rect><rect x="86.38" y="310.32" width="5.46" height="5.46" style="fill:#fff"></rect><rect x="74.63" y="320.26" width="5.46" height="5.46" style="fill:#fff"></rect><rect x="86.38" y="330.19" width="5.46" height="5.46" style="fill:#fff"></rect><rect x="86.38" y="340.13" width="5.46" height="5.46" style="fill:#fff"></rect><rect x="74.63" y="350.06" width="5.46" height="5.46" style="fill:#fff"></rect><rect x="86.38" y="369.93" width="5.46" height="5.46" style="fill:#fff"></rect><path d="M61.32,213.52s106.9,15.43,115.8-9.91c8.46-24.09-7.6-6.31-27.3-7.51-7.85-.48-1.08-23.46-21.1-23.36-19.57.09-14.63,22.3-22.62,22.61-4.08.15-2-9.36-13.94-8.53-12.94.9-9.69,14.7-14.39,18.06C74,207.58,60.51,200.56,61.32,213.52Z" style="fill:#f0f0f0"></path><path d="M42.07,219.11s65.82,9.5,71.29-6.1c5.21-14.83-4.67-3.89-16.8-4.63-4.84-.29-.67-14.44-13-14.38-12,.06-9,13.74-13.93,13.92-2.51.1-1.23-5.76-8.58-5.25-8,.56-6,9.05-8.86,11.12C49.87,215.45,41.58,211.13,42.07,219.11Z" style="fill:#fafafa"></path><polygon points="415.72 368.89 432.74 368.89 432.74 338.93 415.72 332.49 415.72 368.89" style="fill:#ebebeb"></polygon><rect x="422.97" y="338.7" width="2.51" height="2.51" transform="translate(848.46 679.91) rotate(180)" style="fill:#fff"></rect><rect x="417.58" y="338.7" width="2.51" height="2.51" transform="translate(837.66 679.91) rotate(180)" style="fill:#fff"></rect><rect x="428.37" y="343.27" width="2.51" height="2.51" transform="translate(859.25 689.05) rotate(180)" style="fill:#fff"></rect><rect x="422.97" y="347.83" width="2.51" height="2.51" transform="translate(848.46 698.18) rotate(180)" style="fill:#fff"></rect><rect x="417.58" y="347.83" width="2.51" height="2.51" transform="translate(837.66 698.18) rotate(180)" style="fill:#fff"></rect><rect x="428.37" y="352.4" width="2.51" height="2.51" transform="translate(859.25 707.31) rotate(180)" style="fill:#fff"></rect><rect x="422.97" y="357.99" width="2.51" height="2.51" style="fill:#fff"></rect><rect x="428.37" y="357.99" width="2.51" height="2.51" style="fill:#fff"></rect><rect x="417.58" y="362.55" width="2.51" height="2.51" style="fill:#fff"></rect><polygon points="408.54 298.33 408.54 288.95 406.29 288.95 406.29 278.47 404.4 278.47 404.4 273.73 400.6 268.13 396.8 273.73 396.8 278.47 394.91 278.47 394.91 288.95 392.66 288.95 392.66 298.33 390.39 298.33 390.39 353.21 410.82 353.21 410.82 298.33 408.54 298.33" style="fill:#ebebeb"></polygon><rect x="399.18" y="301.26" width="2.83" height="2.83" style="fill:#fefefe"></rect><rect x="405.28" y="301.26" width="2.83" height="2.83" style="fill:#fefefe"></rect><rect x="393.09" y="311.57" width="2.83" height="2.83" style="fill:#fefefe"></rect><rect x="405.28" y="311.57" width="2.83" height="2.83" style="fill:#fefefe"></rect><rect x="399.18" y="316.73" width="2.83" height="2.83" style="fill:#fefefe"></rect><rect x="393.09" y="321.88" width="2.83" height="2.83" style="fill:#fefefe"></rect><rect x="399.18" y="321.88" width="2.83" height="2.83" style="fill:#fefefe"></rect><rect x="405.28" y="327.04" width="2.83" height="2.83" style="fill:#fefefe"></rect><rect x="393.09" y="332.2" width="2.83" height="2.83" style="fill:#fefefe"></rect><rect x="399.18" y="337.35" width="2.83" height="2.83" style="fill:#fefefe"></rect><rect x="405.28" y="337.35" width="2.83" height="2.83" style="fill:#fefefe"></rect><rect x="416.78" y="398.49" width="33.12" height="0.25" style="fill:#ebebeb"></rect><rect x="322.53" y="401.21" width="8.69" height="0.25" style="fill:#ebebeb"></rect><rect x="396.59" y="389.21" width="19.19" height="0.25" style="fill:#ebebeb"></rect><rect x="52.46" y="390.89" width="43.19" height="0.25" style="fill:#ebebeb"></rect><rect x="104.56" y="390.89" width="6.33" height="0.25" style="fill:#ebebeb"></rect><rect x="131.47" y="395.11" width="93.68" height="0.25" style="fill:#ebebeb"></rect><path d="M238.4,337.8H45.3a5.71,5.71,0,0,1-5.71-5.71V60.66A5.71,5.71,0,0,1,45.3,55H238.4a5.71,5.71,0,0,1,5.71,5.71V332.09A5.71,5.71,0,0,1,238.4,337.8ZM45.3,55.2a5.47,5.47,0,0,0-5.46,5.46V332.09a5.47,5.47,0,0,0,5.46,5.46H238.4a5.47,5.47,0,0,0,5.46-5.46V60.66a5.47,5.47,0,0,0-5.46-5.46Z" style="fill:#ebebeb"></path><path d="M454.7,337.8H261.6a5.71,5.71,0,0,1-5.71-5.71V60.66A5.71,5.71,0,0,1,261.6,55H454.7a5.71,5.71,0,0,1,5.71,5.71V332.09A5.71,5.71,0,0,1,454.7,337.8ZM261.6,55.2a5.47,5.47,0,0,0-5.46,5.46V332.09a5.47,5.47,0,0,0,5.46,5.46H454.7a5.47,5.47,0,0,0,5.46-5.46V60.66a5.47,5.47,0,0,0-5.46-5.46Z" style="fill:#ebebeb"></path><rect y="382.4" width="500" height="0.25" style="fill:#ebebeb"></rect><path d="M293.65,381.91l69.53-47.06c7.11-4.82,18.65-4.82,25.76,0l69.53,47.06Z" style="fill:#f5f5f5"></path><path d="M388.94,334.85c-4.44-3-10.6-4.13-16.34-3.39-2.59,6.68-4.26,16.43,5.25,21,15.23,7.29-3.64,14.79-3.64,22.13,0,2.37,1.24,4.94,2.92,7.34h81.34Z" style="fill:#ebebeb"></path><path d="M154.36,372.44l23.49-37.15c.52-.83.14-2.31-.6-2.31H155.82q11-17.42,22-34.84c.52-.83.14-2.31-.6-2.31H155.82q11-17.41,22-34.84c.52-.83.14-2.31-.6-2.31H155.82q11-17.42,22-34.84c.52-.83.14-2.31-.6-2.31H155.82q11-17.42,22-34.84c.52-.82.14-2.3-.6-2.3H155.82l22-34.85c.52-.82.14-2.3-.6-2.3H155.82l22-34.84c.78-1.24-.43-3.15-1.21-1.92l-23.49,37.15v0a1.79,1.79,0,0,0-.14,1.44c.1.45.35.8.73.82h21.46q-11,17.42-22,34.84v0a1.79,1.79,0,0,0-.14,1.44c.1.45.35.8.73.82h21.46q-11,17.41-22,34.84v0a1.79,1.79,0,0,0-.14,1.44c.1.45.35.8.73.82h21.46q-11,17.41-22,34.84v0a1.79,1.79,0,0,0-.14,1.44c.1.45.35.8.73.82h21.46l-22,34.84v0a1.79,1.79,0,0,0-.14,1.44c.1.44.35.8.73.82h21.46l-22,34.84v0a1.79,1.79,0,0,0-.14,1.44c.1.44.35.8.73.82h21.46l-22,34.84C152.37,371.76,153.58,373.67,154.36,372.44Z" style="fill:#e0e0e0"></path><path d="M177.25,373.51c.69,0,1.28-.93,1.28-2v-260c0-1.1-.59-2-1.28-2H153.76c-.7,0-1.28.93-1.28,2v260a2.47,2.47,0,0,0,.34,1.37.43.43,0,0,0,0,.07l0,0a1,1,0,0,0,.88.55ZM155,283.56V113.47H176v256H155Z" style="fill:#e0e0e0"></path><path d="M176.64,372.44l-23.49-37.15c-.52-.83-.13-2.31.61-2.31h21.42q-11-17.42-22-34.84c-.52-.83-.13-2.31.61-2.31h21.42l-22-34.84c-.52-.83-.13-2.31.61-2.31h21.42l-22-34.84c-.52-.83-.13-2.31.61-2.31h21.42l-22-34.84c-.52-.82-.13-2.3.61-2.3h21.42l-22-34.85c-.52-.82-.13-2.3.61-2.3h21.42q-11-17.43-22-34.84c-.78-1.24.43-3.15,1.21-1.92l23.49,37.15v0a1.79,1.79,0,0,1,.14,1.44c-.1.45-.34.8-.72.82H155.82q11,17.42,22,34.84v0a1.79,1.79,0,0,1,.14,1.44c-.1.45-.34.8-.72.82H155.82q11,17.41,22,34.84v0a1.79,1.79,0,0,1,.14,1.44c-.1.45-.34.8-.72.82H155.82q11,17.41,22,34.84v0a1.79,1.79,0,0,1,.14,1.44c-.1.45-.34.8-.72.82H155.82q11,17.42,22,34.84v0a1.79,1.79,0,0,1,.14,1.44c-.1.44-.34.8-.72.82H155.82q11,17.41,22,34.84v0a1.79,1.79,0,0,1,.14,1.44c-.1.44-.34.8-.72.82H155.82q11,17.42,22,34.84C178.63,371.76,177.42,373.67,176.64,372.44Z" style="fill:#f0f0f0"></path><path d="M177.25,373.51a1,1,0,0,0,.87-.55l0,0,0-.07a2.55,2.55,0,0,0,.34-1.37v-260c0-1.1-.59-2-1.28-2H153.76c-.7,0-1.28.93-1.28,2v260c0,1.1.58,2,1.28,2ZM176,369.45H155v-256H176v256Z" style="fill:#f0f0f0"></path><rect x="145.87" y="374.55" width="135.97" height="7.85" transform="translate(427.71 756.95) rotate(180)" style="fill:#e0e0e0"></rect><rect x="145.87" y="370.84" width="141.67" height="4.63" transform="translate(433.42 746.31) rotate(180)" style="fill:#ebebeb"></rect><path d="M154.05,149.43l15.54,9.82c.34.22,1,.06,1-.25v-9l14.57,9.21c.35.22,1,.06,1-.25v-9l14.57,9.21c.34.22,1,.06,1-.25v-9l14.57,9.21c.35.22,1,.06,1-.25v-9l14.57,9.21c.34.22,1,.06,1-.25v-9l14.57,9.21c.35.22,1,.06,1-.25v-9l14.57,9.21c.51.32,1.31-.18.8-.51l-15.54-9.82h0a.77.77,0,0,0-.61-.06c-.18.05-.33.15-.34.31h0v9l-14.57-9.21h0a.75.75,0,0,0-.6-.06c-.19.05-.33.15-.34.31h0v9L217,148.92h0a.77.77,0,0,0-.61-.06c-.18.05-.33.15-.34.31h0v9l-14.57-9.21h0a.75.75,0,0,0-.6-.06c-.19.05-.33.15-.34.31h0v9l-14.57-9.21h0a.77.77,0,0,0-.61-.06c-.18.05-.33.15-.34.31h0v9l-14.57-9.21h0a.75.75,0,0,0-.6-.06c-.19.05-.33.15-.35.31h0v9l-14.57-9.21C154.34,148.59,153.54,149.1,154.05,149.43Z" style="fill:#e0e0e0"></path><path d="M153.6,159c0,.29.39.53.85.53H263.2c.46,0,.85-.24.85-.53v-9.83c0-.29-.39-.53-.85-.53H154.45a1,1,0,0,0-.57.14l0,0h0a.43.43,0,0,0-.23.36Zm37.62-9.29h71.13v8.75h-107v-8.75Z" style="fill:#e0e0e0"></path><path d="M154.05,158.74l15.54-9.82c.34-.22,1-.06,1,.25v9l14.57-9.21c.35-.22,1-.06,1,.25v9l14.57-9.21c.34-.22,1-.06,1,.25v9l14.57-9.21c.35-.22,1-.06,1,.25v9l14.57-9.21c.34-.22,1-.06,1,.25v9l14.57-9.21c.35-.22,1-.06,1,.25v9l14.57-9.21c.51-.33,1.31.18.8.51l-15.54,9.82h0a.82.82,0,0,1-.61.06c-.18,0-.33-.15-.34-.31h0v-9l-14.57,9.21h0a.79.79,0,0,1-.6.06c-.19,0-.33-.15-.34-.31h0v-9L217,159.25h0a.82.82,0,0,1-.61.06c-.18,0-.33-.15-.34-.31h0v-9l-14.57,9.21h0a.79.79,0,0,1-.6.06c-.19,0-.33-.15-.34-.31h0v-9l-14.57,9.21h0a.82.82,0,0,1-.61.06c-.18,0-.33-.15-.34-.31h0v-9l-14.57,9.21h0a.79.79,0,0,1-.6.06c-.19,0-.33-.15-.35-.31h0v-9l-14.57,9.21C154.34,159.57,153.54,159.07,154.05,158.74Z" style="fill:#f0f0f0"></path><path d="M153.6,159a.44.44,0,0,0,.23.36h0l0,0a1.08,1.08,0,0,0,.57.14H263.2c.46,0,.85-.24.85-.53v-9.83c0-.29-.39-.53-.85-.53H154.45c-.46,0-.85.24-.85.53Zm1.7-.54v-8.75H262.35v8.75h-107Z" style="fill:#f0f0f0"></path><rect x="151.67" y="147.83" width="27.67" height="12.5" rx="2.63" transform="translate(331 308.17) rotate(180)" style="fill:#f5f5f5"></rect><path d="M154.05,225l15.54,9.83c.34.21,1,.05,1-.26v-9q7.29,4.6,14.57,9.22c.35.21,1,.05,1-.26v-9l14.57,9.22c.34.21,1,.05,1-.26v-9q7.29,4.6,14.57,9.22c.35.21,1,.05,1-.26v-9l14.57,9.22c.34.21,1,.05,1-.26v-9q7.29,4.6,14.57,9.22c.35.21,1,.05,1-.26v-9l14.57,9.22c.51.32,1.31-.18.8-.51l-15.54-9.82h0a.77.77,0,0,0-.61-.06c-.18,0-.33.14-.34.3h0v9l-14.57-9.21h0a.75.75,0,0,0-.6-.06c-.19,0-.33.14-.34.3h0v9L217,224.49h0a.77.77,0,0,0-.61-.06c-.18,0-.33.14-.34.3h0v9l-14.57-9.21h0a.75.75,0,0,0-.6-.06c-.19,0-.33.14-.34.3h0v9l-14.57-9.21h0a.77.77,0,0,0-.61-.06c-.18,0-.33.14-.34.3h0v9l-14.57-9.21h0a.75.75,0,0,0-.6-.06c-.19,0-.33.14-.35.3h0v9l-14.57-9.21C154.34,224.16,153.54,224.67,154.05,225Z" style="fill:#e0e0e0"></path><path d="M153.6,234.56c0,.29.39.54.85.54H263.2c.46,0,.85-.25.85-.54v-9.82c0-.29-.39-.54-.85-.54H154.45a1,1,0,0,0-.57.15h0a.46.46,0,0,0-.23.37Zm37.62-9.28h71.13V234h-107v-8.75Z" style="fill:#e0e0e0"></path><path d="M154.05,234.31l15.54-9.82c.34-.22,1-.06,1,.25v9l14.57-9.21c.35-.22,1-.06,1,.25v9l14.57-9.21c.34-.22,1-.06,1,.25v9l14.57-9.21c.35-.22,1-.06,1,.25v9l14.57-9.21c.34-.22,1-.06,1,.25v9l14.57-9.21c.35-.22,1-.06,1,.25v9l14.57-9.21c.51-.33,1.31.18.8.5l-15.54,9.83h0a.73.73,0,0,1-.61.06c-.18,0-.33-.14-.34-.3h0v-9q-7.29,4.6-14.57,9.22h0a.71.71,0,0,1-.6.06c-.19,0-.33-.14-.34-.3h0v-9L217,234.82h0a.73.73,0,0,1-.61.06c-.18,0-.33-.14-.34-.3h0v-9q-7.29,4.6-14.57,9.22h0a.71.71,0,0,1-.6.06c-.19,0-.33-.14-.34-.3h0v-9l-14.57,9.22h0a.73.73,0,0,1-.61.06c-.18,0-.33-.14-.34-.3h0v-9q-7.29,4.6-14.57,9.22h0a.71.71,0,0,1-.6.06c-.19,0-.33-.14-.35-.3h0v-9l-14.57,9.22C154.34,235.14,153.54,234.64,154.05,234.31Z" style="fill:#f0f0f0"></path><path d="M153.6,234.56a.46.46,0,0,0,.23.37h0l0,0a1.08,1.08,0,0,0,.57.14H263.2c.46,0,.85-.25.85-.54v-9.82c0-.29-.39-.54-.85-.54H154.45c-.46,0-.85.25-.85.54Zm1.7-.53v-8.75H262.35V234h-107Z" style="fill:#f0f0f0"></path><rect x="151.67" y="223.4" width="27.67" height="12.5" rx="2.63" transform="translate(331 459.3) rotate(180)" style="fill:#f5f5f5"></rect><path d="M154.05,300.56l15.54,9.82c.34.22,1,.06,1-.25v-9l14.57,9.21c.35.22,1,.06,1-.25v-9l14.57,9.21c.34.22,1,.06,1-.25v-9l14.57,9.21c.35.22,1,.06,1-.25v-9l14.57,9.21c.34.22,1,.06,1-.25v-9l14.57,9.21c.35.22,1,.06,1-.25v-9l14.57,9.21c.51.33,1.31-.18.8-.5l-15.54-9.83h0a.73.73,0,0,0-.61-.06c-.18,0-.33.14-.34.3h0v9l-14.57-9.22h0a.71.71,0,0,0-.6-.06c-.19,0-.33.14-.34.3h0v9L217,300.05h0a.73.73,0,0,0-.61-.06c-.18,0-.33.14-.34.3h0v9l-14.57-9.22h0a.71.71,0,0,0-.6-.06c-.19,0-.33.14-.34.3h0v9q-7.28-4.62-14.57-9.22h0a.73.73,0,0,0-.61-.06c-.18,0-.33.14-.34.3h0v9l-14.57-9.22h0a.71.71,0,0,0-.6-.06c-.19,0-.33.14-.35.3h0v9q-7.28-4.62-14.57-9.22C154.34,299.73,153.54,300.23,154.05,300.56Z" style="fill:#e0e0e0"></path><path d="M153.6,310.13c0,.29.39.54.85.54H263.2c.46,0,.85-.25.85-.54v-9.82c0-.29-.39-.54-.85-.54H154.45a1.08,1.08,0,0,0-.57.14l0,0h0a.46.46,0,0,0-.23.37Zm37.62-9.29h71.13v8.75h-107v-8.75Z" style="fill:#e0e0e0"></path><path d="M154.05,309.88l15.54-9.83c.34-.22,1-.05,1,.26v9l14.57-9.22c.35-.22,1-.05,1,.26v9l14.57-9.22c.34-.22,1-.05,1,.26v9l14.57-9.22c.35-.22,1-.05,1,.26v9l14.57-9.22c.34-.22,1-.05,1,.26v9l14.57-9.22c.35-.22,1-.05,1,.26v9l14.57-9.22c.51-.32,1.31.18.8.51l-15.54,9.82h0a.77.77,0,0,1-.61.06c-.18,0-.33-.15-.34-.3v0h0v-9l-14.57,9.21h0a.75.75,0,0,1-.6.06c-.19,0-.33-.15-.34-.3v0h0v-9L217,310.38h0a.77.77,0,0,1-.61.06c-.18,0-.33-.15-.34-.3v0h0v-9l-14.57,9.21h0a.75.75,0,0,1-.6.06c-.19,0-.33-.15-.34-.3v0h0v-9l-14.57,9.21h0a.77.77,0,0,1-.61.06c-.18,0-.33-.15-.34-.3v0h0v-9l-14.57,9.21h0a.75.75,0,0,1-.6.06.4.4,0,0,1-.35-.3v0h0v-9l-14.57,9.21C154.34,310.71,153.54,310.2,154.05,309.88Z" style="fill:#f0f0f0"></path><path d="M153.6,310.13a.43.43,0,0,0,.23.36h0l0,0a1,1,0,0,0,.57.15H263.2c.46,0,.85-.25.85-.54v-9.82c0-.29-.39-.54-.85-.54H154.45c-.46,0-.85.25-.85.54Zm1.7-.54v-8.75H262.35v8.75h-107Z" style="fill:#f0f0f0"></path><rect x="151.67" y="298.97" width="27.67" height="12.5" rx="2.63" transform="translate(331 610.44) rotate(-180)" style="fill:#f5f5f5"></rect><path d="M289.34,151.53S406.67,164.77,395,131.67c-9-25.43-25.73-1.7-33.8-4.46C354.12,124.8,356.86,107,337.6,109s-12.16,20.9-18.32,25.91C312.64,140.27,288.62,127.21,289.34,151.53Z" style="fill:#f0f0f0"></path><path d="M351.51,155.59s70.9,8,63.84-12c-5.44-15.37-15.56-1-20.43-2.69-4.26-1.46-2.6-12.24-14.24-11s-7.35,12.63-11.07,15.65C365.59,148.79,351.08,140.9,351.51,155.59Z" style="fill:#fafafa"></path></g><g id="freepik--Shadow--inject-5"><ellipse id="freepik--path--inject-5" cx="245.18" cy="412.39" rx="193.89" ry="11.32" style="fill:#f5f5f5"></ellipse></g><g id="freepik--Character--inject-5"><rect x="295.58" y="187.05" width="20.01" height="26.73" rx="2.62" transform="translate(-27.64 50.39) rotate(-9.02)" style="fill:#407BFF"></rect><path d="M313.77,188.17a2.51,2.51,0,0,0-1.08-1.7L299,214.62a2.47,2.47,0,0,0,1.35.16L315,212.44a2.55,2.55,0,0,0,2.12-2.92Z" style="fill:#fff;opacity:0.2"></path><path d="M315,212.44a2.55,2.55,0,0,0,2.12-2.92l-3.39-21.35a2.55,2.55,0,0,0-2.92-2.12l-14.72,2.34a2.55,2.55,0,0,0-2.12,2.92l3.38,21.35a2.57,2.57,0,0,0,2.93,2.12Zm-16.68.06L295,191.16a1.55,1.55,0,0,1,.28-1.18,1.61,1.61,0,0,1,1-.63L311,187l.25,0a1.59,1.59,0,0,1,1.56,1.34l3.39,21.34a1.64,1.64,0,0,1-.28,1.18,1.6,1.6,0,0,1-1,.63l-14.71,2.34A1.59,1.59,0,0,1,298.36,212.5Z" style="fill:#263238"></path><rect x="298.22" y="198.08" width="14.98" height="4.21" rx="1.93" transform="matrix(0.99, -0.16, 0.16, 0.99, -27.55, 50.29)" style="fill:#fff;opacity:0.9"></rect><path d="M301.26,202a1,1,0,0,1-.39-.12l.08-.33a1.2,1.2,0,0,0,.35.11,1.08,1.08,0,0,0,.4,0,.78.78,0,0,0,.34-.13.22.22,0,0,0,.08-.22.16.16,0,0,0-.08-.14.36.36,0,0,0-.19-.07l-.28,0a3.23,3.23,0,0,1-.42-.06.62.62,0,0,1-.28-.14.45.45,0,0,1-.16-.31.57.57,0,0,1,0-.34.66.66,0,0,1,.25-.28,1.38,1.38,0,0,1,.46-.16,1.79,1.79,0,0,1,.4,0,1,1,0,0,1,.35.09l-.08.33a1.18,1.18,0,0,0-.31-.08h-.31a.6.6,0,0,0-.33.14.23.23,0,0,0-.08.23.18.18,0,0,0,.09.13.36.36,0,0,0,.18.07l.28,0a2,2,0,0,1,.41.06.7.7,0,0,1,.29.13.49.49,0,0,1,.16.32.61.61,0,0,1,0,.33.69.69,0,0,1-.26.28,1.3,1.3,0,0,1-.46.16A1.61,1.61,0,0,1,301.26,202Z" style="fill:#263238"></path><path d="M303.18,199.88l-.71.11-.05-.34,1.81-.28,0,.33-.7.11.28,1.8-.4.07Z" style="fill:#263238"></path><path d="M306.13,200.75l-1.07.17-.13.52-.41.07.62-2.29.39-.06,1.3,2-.41.07Zm-.18-.29-.55-.87-.26,1Z" style="fill:#263238"></path><path d="M308.56,200.87l-.53-.56-.08,0-.49.07.1.63-.39.06-.34-2.14.88-.14a1.31,1.31,0,0,1,.49,0,.72.72,0,0,1,.36.21.79.79,0,0,1,.18.39.76.76,0,0,1-.06.43.69.69,0,0,1-.29.32l.6.62Zm-.41-1.67a.66.66,0,0,0-.41,0l-.46.08.13.85.47-.08a.56.56,0,0,0,.37-.17.4.4,0,0,0,.09-.34A.43.43,0,0,0,308.15,199.2Z" style="fill:#263238"></path><path d="M309.57,198.86l-.7.11-.06-.33,1.82-.29.05.34-.71.11.29,1.8-.4.06Z" style="fill:#263238"></path><path d="M345.33,175.58c-.16.53,0,1,.34,1.14s.81-.26.95-.78,0-1-.35-1.14S345.49,175.05,345.33,175.58Z" style="fill:#263238"></path><path d="M347.35,177.68l-4.49,2.51a3.91,3.91,0,0,0,2.93,1.88Z" style="fill:#ba4d3c"></path><path d="M348.13,174a.32.32,0,0,1-.24-.14,2.26,2.26,0,0,0-1.74-1.14.3.3,0,0,1-.28-.3.31.31,0,0,1,.31-.28,2.8,2.8,0,0,1,2.22,1.42.3.3,0,0,1-.11.4h0A.47.47,0,0,1,348.13,174Z" style="fill:#263238"></path><path d="M366.61,179.16c-1.8,7.12-2.41,10.17-6.83,13.22-6.39,2.76-15.21.9-15.61-6.6-.37-6.74,2.63-17.22,10.4-18.86a10.19,10.19,0,0,1,12.15,7.65A9.76,9.76,0,0,1,366.61,179.16Z" style="fill:#ce7a63"></path><path d="M352.58,178l-8.07-5.09s-2.4,5.33-1.41,5.66,2.55-3.87,2.55-3.87l5.77,3.16Z" style="fill:#407BFF"></path><path d="M345.43,174.84l-.61-.41s-1.93,3.76-1.48,4.12S345.43,174.84,345.43,174.84Z" style="fill:#fff;opacity:0.7000000000000001"></path><path d="M351.52,192.28c.68,2.17-2.09,7.37-2.09,7.37l10.17,5,1.89-14.33S350.71,189.72,351.52,192.28Z" style="fill:#ce7a63"></path><path d="M351.66,182.3a9,9,0,0,1,1.22-7.51c1.07-1.45-.93-5.55-2.16-1.87-.8,2.38-5.38-2.24-2.86-6.23,0,0,6.14-7.28,10.82-1.37,0,0,11.15,1.44,10.46,9.11,0,0,3.68,9.52-8.49,19.15L357,192.9c-1.87-.41-3.31-3.19-3.82-5Z" style="fill:#263238"></path><path d="M351.44,178.11a5.67,5.67,0,0,0-2.63,3.49c-.47,1.93,1.32,2.83,3.15,2.24,1.65-.54,3.87-2.19,3.53-4.11A2.62,2.62,0,0,0,351.44,178.11Z" style="fill:#ce7a63"></path><path d="M366.54,169.35s-3.45-1.84-3.22,1.53,2.68,8,5.59,7.7S366.54,169.35,366.54,169.35Z" style="fill:#407BFF"></path><path d="M369.46,166.72a4.15,4.15,0,0,0-4,2.94,5.67,5.67,0,0,0,1,5c1.08,1.42,2.61,7.09,2,7.87-.83,1.09-.48,2.58-.86,3.9-1.65,5.76,3.81,7.9,4.85,7.88a4.11,4.11,0,0,0,3.19.44c.65-.2,3.19-.74,2-4.07,0,.61-1,1.19-1.63,1.12a1.89,1.89,0,0,1-1.49-1.11c-.26-.6,1.58,1.53,3.64-.8.82-.94,1-3.73.43-4.86a14.34,14.34,0,0,0,2.49-6.47,7,7,0,0,0-2-5.27,5.12,5.12,0,0,0-1.12-6.15,7.38,7.38,0,0,0-6.35-1.67c-1,.19-2.18.73-2.35,1.76" style="fill:#263238"></path><path d="M331,216.4s-4.47-5.77-6-7.63c-1.08-1.27-3.1-4-4.46-4.94s-5.13-2.72-6.92-2.54c-.29,0-.64.11-.64.4,0,.84,2.3,1.81,3.82,2.35a1.11,1.11,0,0,1,.57,1.61c-.62,1-1.38,3.52-1.16,4.16.31.9,2.15,1.89,2.93,2.44S322,214,322,214l5.37,8.48Z" style="fill:#ce7a63"></path><path d="M331,216.4s-4.47-5.77-6-7.63c-1.08-1.27-3.1-4-4.46-4.94s-5.13-2.72-6.92-2.54c-.29,0-.64.11-.64.4,0,.84,2.3,1.81,3.82,2.35a1.11,1.11,0,0,1,.57,1.61c-.62,1-1.38,3.52-1.16,4.16.31.9,2.15,1.89,2.93,2.44S322,214,322,214l5.37,8.48Z" style="opacity:0.1"></path><path d="M325.84,220.58s6.64,14.33,14,17.55,8.33,3.15,22.34-10.43,11.52-21.51,6.52-23-8.82,4-13.28,10.3a95.66,95.66,0,0,1-11,12.34l-13.94-11.94S326.59,215.88,325.84,220.58Z" style="fill:#263238"></path><polygon points="315.3 395.4 314.34 409.54 320.88 410.52 324.29 396.78 315.3 395.4" style="fill:#ce7a63"></polygon><path d="M314.64,406.23l6.82.52a.7.7,0,0,1,.67.57l1.39,7.13a1.17,1.17,0,0,1-.91,1.38l-.25,0c-3.14-.14-5.93-.38-9.84-.48-4.62-.12-3.46.47-8.89.4-3.27,0-3.77-3.77-2.38-3.92,6.37-.63,9-2.83,11.48-5A2.79,2.79,0,0,1,314.64,406.23Z" style="fill:#263238"></path><polygon points="322.04 405.86 314.64 405.16 315.3 395.4 324.29 396.78 322.04 405.86" style="opacity:0.1"></polygon><polygon points="363 391.81 366.46 409.51 372.74 408.98 372.03 391.81 363 391.81" style="fill:#ce7a63"></polygon><path d="M365.75,407.27l7.8-.12a.64.64,0,0,1,.62.48l1.5,6.32a1,1,0,0,1-.76,1.27l-.22,0c-2.81,0-5.31-.13-8.81-.07-4.13.06-3.08.54-7.93.68-2.92.08-3.51-3.23-2.27-3.41,5.67-.8,6.23-2.53,8.39-4.59A2.47,2.47,0,0,1,365.75,407.27Z" style="fill:#263238"></path><path d="M372.57,405l-6.87.66-2.54-13c3-.15,7.92-.37,8.89-.41Z" style="opacity:0.1"></path><path d="M373.16,402.36l-8.47.6-16.46-74.85-3.35-16.54-4.46-22L335,259.81H363.1s5.14,13,2.83,27.44c-1.46,9.08-1.2,21.58-1.08,31.31,0,2.85.07,5.34.11,7.25a21.84,21.84,0,0,0,1.33,7.11c.57,1.59,1.28,3.77,2,6.46a73.14,73.14,0,0,1,2.78,14.75C372.38,370.58,373.16,402.36,373.16,402.36Z" style="fill:#407BFF"></path><path d="M373.16,402.36l-8.47.6-16.46-74.85-3.35-16.54-4.46-22L335,259.81H363.1s5.14,13,2.83,27.44c-1.46,9.08-1.2,21.58-1.08,31.31,0,2.85.07,5.34.11,7.25a21.84,21.84,0,0,0,1.33,7.11c.57,1.59,1.28,3.77,2,6.46a73.14,73.14,0,0,1,2.78,14.75C372.38,370.58,373.16,402.36,373.16,402.36Z" style="opacity:0.1"></path><path d="M354.82,282.9a78.43,78.43,0,0,0-9.94,28.67l-4.46-22,.11-.57,7.57-5.71,2.5-1.06Z" style="opacity:0.1"></path><path d="M328.43,259.81l-14,141.54,8.6,1.27s11.08-36.19,12.79-57.2a50.86,50.86,0,0,0,.18-6.71,25.47,25.47,0,0,1,1.07-8.45l1.17-3.94,6.53-24.06a37.15,37.15,0,0,1,6.56-12.8c3.47-4.32,8.23-15.63,6.27-29.35l-21.36-.3Z" style="fill:#407BFF"></path><polygon points="324.64 400.45 323.35 403.99 313.21 402.56 313.44 398.81 324.64 400.45" style="fill:#407BFF"></polygon><polygon points="324.64 400.45 323.35 403.99 313.21 402.56 313.44 398.81 324.64 400.45" style="opacity:0.2"></polygon><polygon points="374.21 399.82 374.16 403.53 363.95 404.32 363.37 400.6 374.21 399.82" style="fill:#407BFF"></polygon><polygon points="374.21 399.82 374.16 403.53 363.95 404.32 363.37 400.6 374.21 399.82" style="opacity:0.2"></polygon><path d="M370.81,208.23c.11,11.3-7.64,16.55-7.93,46.33,0,0-1.13,5.17-34.17-.28,0,0,.61-5.68,0-20l-.06-1.17c-.3-6.85-.47-13.23-.3-17.15,0-.61.06-1.16.1-1.63a11.85,11.85,0,0,1,.16-1.33c1.41-7.69,2.22-10.79,5-12.59C343.69,193.89,370.73,201.06,370.81,208.23Z" style="fill:#263238"></path><path d="M328.6,233.11c-.3-6.85-.47-13.23-.3-17.15,0-.61.06-1.16.1-1.63l7.53-9.85,3.14,1.36S341.92,217.86,328.6,233.11Z" style="opacity:0.4"></path><path d="M308.65,215.21l-7-5.42a16,16,0,0,0-1.34-6.68c-1.17-2.2-6.5-6.15-6.41-.91s.37,4.89,1.26,6.75c.56,1.19,1.53,1.58,3.36,3.55s5.25,6.86,5.25,6.86Z" style="fill:#ce7a63"></path><path d="M302,218.79s8.18,11,11.43,13.83c4.65,4,11.95,2.69,18.79-8.63,10.09-16.7,9.35-22.53,4.23-23.51s-7.6,5.47-11.43,12.14-6.44,10.89-6.44,10.89l-11.35-10.45S302.33,214,302,218.79Z" style="fill:#263238"></path><path d="M348,199s3.63-6.39,13.74-2.12c5.86,2.47,0,5.86,0,5.86Z" style="fill:#263238"></path><path d="M350.29,198.41s8.61-1.73,12.88,2.92Z" style="opacity:0.4"></path><polygon points="328.71 254.28 362.88 254.56 363.1 259.81 328.43 259.81 328.71 254.28" style="fill:#407BFF"></polygon><polygon points="328.71 254.28 362.88 254.56 363.1 259.81 328.43 259.81 328.71 254.28" style="opacity:0.2"></polygon><path d="M209.93,232.46c-1.67.14-3.67-.18-5.34,0,.51-12.49-2-30.63-7.62-45.07C206.83,200.52,209.28,216,209.93,232.46Z" style="fill:#fff"></path></g><g id="freepik--Rocket--inject-5"><path d="M205.41,325.87l-3.18,26.66s6-3.83,7.68,4.66c0,0,.06-6,4.88-6.49,5.16-.5,6,5.41,6,5.41s.19-7.41,6.74-8.28l-2.93-22Z" style="fill:#407BFF"></path><path d="M171.94,371.44s-16.79,1.05-16.25-1.36,12.93-2.74,12.93-2.74-7.79-3.35-4.39-8.11,9.76,1.2,9.76,1.2-4-5.65.09-8.93c5.18-4.16,9.58,4.07,9.58,4.07s-1.17-6.34,3.5-6.22,3.34,6.16,3.34,6.16,6.52-5.39,9.92-1.85c3.16,3.29-1.18,7.93-1.18,7.93s6.79-4.26,8.82-.32-5.26,7.38-5.26,7.38,14.1-.7,14.56,1.49S182.81,370.21,171.94,371.44Z" style="fill:#407BFF"></path><path d="M171.94,371.44s-16.79,1.05-16.25-1.36,12.93-2.74,12.93-2.74-7.79-3.35-4.39-8.11,9.76,1.2,9.76,1.2-4-5.65.09-8.93c5.18-4.16,9.58,4.07,9.58,4.07s-1.17-6.34,3.5-6.22,3.34,6.16,3.34,6.16,6.52-5.39,9.92-1.85c3.16,3.29-1.18,7.93-1.18,7.93s6.79-4.26,8.82-.32-5.26,7.38-5.26,7.38,14.1-.7,14.56,1.49S182.81,370.21,171.94,371.44Z" style="fill:#fff;opacity:0.7000000000000001"></path><path d="M228.48,370.42s-16.8,1.06-16.26-1.36,12.93-2.74,12.93-2.74-7.79-3.35-4.39-8.1,9.76,1.19,9.76,1.19-4-5.64.09-8.92c5.18-4.16,9.58,4.06,9.58,4.06s-1.16-6.33,3.5-6.21,3.34,6.15,3.34,6.15,6.52-5.39,9.92-1.84c3.16,3.29-1.18,7.92-1.18,7.92s6.79-4.26,8.83-.31-5.27,7.38-5.27,7.38,14.11-.7,14.56,1.49S239.34,369.19,228.48,370.42Z" style="fill:#407BFF"></path><path d="M228.48,370.42s-16.8,1.06-16.26-1.36,12.93-2.74,12.93-2.74-7.79-3.35-4.39-8.1,9.76,1.19,9.76,1.19-4-5.64.09-8.92c5.18-4.16,9.58,4.06,9.58,4.06s-1.16-6.33,3.5-6.21,3.34,6.15,3.34,6.15,6.52-5.39,9.92-1.84c3.16,3.29-1.18,7.92-1.18,7.92s6.79-4.26,8.83-.31-5.27,7.38-5.27,7.38,14.11-.7,14.56,1.49S239.34,369.19,228.48,370.42Z" style="fill:#fff;opacity:0.7000000000000001"></path><path d="M196,348.87s-8.78-3.77-4.95-9.13,11,1.35,11,1.35-4.52-6.36.09-10.07c5.85-4.68,10.8,4.59,10.8,4.59s-1.31-7.14,4-7,3.76,6.94,3.76,6.94,7.35-6.08,11.18-2.08c3.56,3.71-1.33,8.93-1.33,8.93s7.65-4.8,10-.35-5.94,8.32-5.94,8.32Z" style="fill:#407BFF"></path><path d="M196,348.87s-8.78-3.77-4.95-9.13,11,1.35,11,1.35-4.52-6.36.09-10.07c5.85-4.68,10.8,4.59,10.8,4.59s-1.31-7.14,4-7,3.76,6.94,3.76,6.94,7.35-6.08,11.18-2.08c3.56,3.71-1.33,8.93-1.33,8.93s7.65-4.8,10-.35-5.94,8.32-5.94,8.32Z" style="fill:#fff;opacity:0.6000000000000001"></path><path d="M191.7,371.6s-24.71,1.56-23.92-2,19-4,19-4-11.45-4.92-6.45-11.92c5.11-7.16,14.36,1.76,14.36,1.76s-5.89-8.3.13-13.13c7.62-6.12,14.09,6,14.09,6s-1.71-9.32,5.16-9.15,4.9,9.06,4.9,9.06,9.6-7.93,14.6-2.72c4.65,4.85-1.74,11.66-1.74,11.66s10-6.26,13-.46-7.75,10.86-7.75,10.86,20.75-1,21.43,2.19S207.69,369.8,191.7,371.6Z" style="fill:#407BFF"></path><path d="M191.7,371.6s-24.71,1.56-23.92-2,19-4,19-4-11.45-4.92-6.45-11.92c5.11-7.16,14.36,1.76,14.36,1.76s-5.89-8.3.13-13.13c7.62-6.12,14.09,6,14.09,6s-1.71-9.32,5.16-9.15,4.9,9.06,4.9,9.06,9.6-7.93,14.6-2.72c4.65,4.85-1.74,11.66-1.74,11.66s10-6.26,13-.46-7.75,10.86-7.75,10.86,20.75-1,21.43,2.19S207.69,369.8,191.7,371.6Z" style="fill:#fff;opacity:0.8"></path><path d="M205.41,327.7l-3.18,26.61s6-3.72,7.68,4.8c0,0,.06-6,4.88-6.41,5.16-.41,6,5.52,6,5.52s.19-7.41,6.74-8.17l-2.93-22Z" style="fill:#fff;opacity:0.9"></path><path d="M209.77,338.8a31.41,31.41,0,0,0-.52,11.11S210.7,343.5,209.77,338.8Z" style="opacity:0.1"></path><path d="M220.17,342.52a28.63,28.63,0,0,0,.22,10S221.3,346.68,220.17,342.52Z" style="opacity:0.1"></path><path d="M195.47,134.86v6.69a70.24,70.24,0,0,0,38.63,0v-6.69a65.76,65.76,0,0,0-19.31-46.63A65.73,65.73,0,0,0,195.47,134.86Z" style="fill:#407BFF"></path><g style="opacity:0.30000000000000004"><path d="M195.47,134.86v6.69a70.24,70.24,0,0,0,38.63,0v-6.69a65.76,65.76,0,0,0-19.31-46.63A65.73,65.73,0,0,0,195.47,134.86Z"></path></g><path d="M216.53,122.28v10.78H214v-8.78h-2.15v-2Z" style="fill:#263238"></path><path d="M234.1,197.62V147a70.24,70.24,0,0,0-38.63,0v50.65A70.24,70.24,0,0,1,234.1,197.62Z" style="fill:#263238"></path><path d="M195.47,147.05V197.7a70.24,70.24,0,0,0,38.63,0V147.05A70.24,70.24,0,0,1,195.47,147.05Z" style="fill:#407BFF"></path><path d="M195.47,147.05V197.7a70.24,70.24,0,0,0,38.63,0V147.05A70.24,70.24,0,0,1,195.47,147.05Z" style="fill:#fff;opacity:0.30000000000000004"></path><path d="M224.22,152.21V197.5s4.61.74,6.24-1.62V150.74l-.28.12a15.12,15.12,0,0,1-6,1.35Z" style="fill:#fff;opacity:0.4"></path><circle cx="214.88" cy="173.68" r="15.13" transform="translate(-59.87 202.81) rotate(-45)" style="fill:#407BFF"></circle><path d="M214.88,188.8a15.11,15.11,0,0,1-15.07-14c0,.38-.06.75-.06,1.14A15.13,15.13,0,1,0,230,176c0-.39,0-.76-.05-1.14A15.12,15.12,0,0,1,214.88,188.8Z" style="fill:#407BFF"></path><path d="M214.88,188.8a15.11,15.11,0,0,1-15.07-14c0,.38-.06.75-.06,1.14A15.13,15.13,0,1,0,230,176c0-.39,0-.76-.05-1.14A15.12,15.12,0,0,1,214.88,188.8Z" style="opacity:0.30000000000000004"></path><circle cx="214.88" cy="173.68" r="10.7" transform="translate(-59.87 202.81) rotate(-45)" style="fill:#fff;opacity:0.6000000000000001"></circle><path d="M214.32,184.32l4.38-20.61a10.79,10.79,0,0,0-3.56-.7l-4.36,20.54A10.61,10.61,0,0,0,214.32,184.32Z" style="fill:#407BFF"></path><path d="M218.31,183.76l3.8-17.92a11.17,11.17,0,0,0-1.59-1.22l-4.16,19.6A10.64,10.64,0,0,0,218.31,183.76Z" style="fill:#407BFF"></path><g style="opacity:0.7000000000000001"><path d="M214.32,184.32l4.38-20.61a10.79,10.79,0,0,0-3.56-.7l-4.36,20.54A10.61,10.61,0,0,0,214.32,184.32Z" style="fill:#fff"></path><path d="M218.31,183.76l3.8-17.92a11.17,11.17,0,0,0-1.59-1.22l-4.16,19.6A10.64,10.64,0,0,0,218.31,183.76Z" style="fill:#fff"></path></g><path d="M218.9,176.79v2h-8.15v-1.62l4.16-3.93a4.36,4.36,0,0,0,.89-1.08,1.94,1.94,0,0,0,.23-.9,1.19,1.19,0,0,0-.44-1,2,2,0,0,0-1.28-.34,3,3,0,0,0-1.28.27,2.45,2.45,0,0,0-.95.8l-1.82-1.17a4.34,4.34,0,0,1,1.74-1.47,5.88,5.88,0,0,1,2.54-.53,5.08,5.08,0,0,1,2.1.4,3.24,3.24,0,0,1,1.4,1.1,2.83,2.83,0,0,1,.5,1.69,3.72,3.72,0,0,1-.37,1.65,6.12,6.12,0,0,1-1.43,1.75l-2.48,2.34Z" style="fill:#263238"></path><path d="M234.1,253.77V203.12a70.24,70.24,0,0,0-38.63,0v50.65A70.24,70.24,0,0,1,234.1,253.77Z" style="fill:#263238"></path><path d="M230.23,209.63H199.34L176.06,251a1.51,1.51,0,0,0,1.31,2.25H252.2a1.51,1.51,0,0,0,1.31-2.25Z" style="fill:#407BFF"></path><path d="M234.1,203.2a70.24,70.24,0,0,1-38.63,0v52.15a70.14,70.14,0,0,0,38.63,0V203.2Z" style="fill:#407BFF"></path><path d="M234.1,203.2a70.24,70.24,0,0,1-38.63,0v52.15a70.14,70.14,0,0,0,38.63,0V203.2Z" style="fill:#fff;opacity:0.5"></path><path d="M224.22,209.28v45.3s4.61.73,6.24-1.63V207.81l-.28.13a14.94,14.94,0,0,1-6,1.34Z" style="fill:#fff;opacity:0.4"></path><path d="M218,231.21a2.92,2.92,0,0,1,.75,2,3.19,3.19,0,0,1-.49,1.73,3.45,3.45,0,0,1-1.5,1.27,5.77,5.77,0,0,1-2.48.48,8.51,8.51,0,0,1-2.24-.3,5.85,5.85,0,0,1-1.87-.85l1-1.91a4.91,4.91,0,0,0,1.43.71,5.47,5.47,0,0,0,1.65.26,2.55,2.55,0,0,0,1.48-.37,1.16,1.16,0,0,0,.54-1c0-.88-.67-1.32-2-1.32h-1.14v-1.65l2.22-2.51h-4.59v-2h7.55v1.61l-2.44,2.77A3.69,3.69,0,0,1,218,231.21Z" style="fill:#263238"></path><path d="M195.47,268.53h-1.86l-31.94,56.75a2.07,2.07,0,0,0,1.81,3.08h32Z" style="fill:#407BFF"></path><path d="M267.9,325.28,236,268.53H234.1v59.83h32A2.06,2.06,0,0,0,267.9,325.28Z" style="fill:#407BFF"></path><g style="opacity:0.2"><path d="M195.47,268.53h-1.86l-31.94,56.75a2.07,2.07,0,0,0,1.81,3.08h32Z"></path><path d="M267.9,325.28,236,268.53H234.1v59.83h32A2.06,2.06,0,0,0,267.9,325.28Z"></path></g><path d="M234.1,302.91V261.06a70.24,70.24,0,0,0-38.63,0v41.85A70.24,70.24,0,0,1,234.1,302.91Z" style="fill:#263238"></path><path d="M229,329.15l-5.07-20.82H205.64l-5.07,20.82A37,37,0,0,0,229,329.15Z" style="fill:#263238"></path><path d="M205.64,308.33l-1.19,4.87a37,37,0,0,0,20.67,0l-1.19-4.87Z" style="fill:#fff;opacity:0.2"></path><path d="M203.18,318.43c-.32,1.32-.65,2.65-1,3.92a42.35,42.35,0,0,0,25.12,0l-1-3.91A59.83,59.83,0,0,1,203.18,318.43Z" style="fill:#fff;opacity:0.4"></path><path d="M234.1,260.86a70.14,70.14,0,0,1-38.63,0v36.31a59,59,0,0,0,38.63,0v-36.3Z" style="fill:#407BFF"></path><path d="M234.1,260.86a70.14,70.14,0,0,1-38.63,0v36.31a59,59,0,0,0,38.63,0v-36.3Z" style="fill:#fff;opacity:0.7000000000000001"></path><path d="M195.47,297.16h0V306a50.35,50.35,0,0,0,38.63,0v-8.86A59,59,0,0,1,195.47,297.16Z" style="fill:#407BFF"></path><path d="M195.47,297.16h0V306a50.35,50.35,0,0,0,38.63,0v-8.86A59,59,0,0,1,195.47,297.16Z" style="opacity:0.2"></path><path d="M186.87,281.62v3a31.17,31.17,0,0,0,17.21,0v-3a29.28,29.28,0,0,0-8.61-20.77A29.31,29.31,0,0,0,186.87,281.62Z" style="fill:#407BFF"></path><path d="M186.87,281.62v3a31.17,31.17,0,0,0,17.21,0v-3a29.28,29.28,0,0,0-8.61-20.77A29.31,29.31,0,0,0,186.87,281.62Z" style="fill:#fff;opacity:0.2"></path><path d="M186.87,284.6v22.56a31.26,31.26,0,0,0,17.21,0V284.6A31.17,31.17,0,0,1,186.87,284.6Z" style="fill:#407BFF"></path><path d="M186.87,284.6v22.56a31.26,31.26,0,0,0,17.21,0V284.6A31.17,31.17,0,0,1,186.87,284.6Z" style="fill:#fff;opacity:0.4"></path><path d="M204.08,307.17a31.26,31.26,0,0,1-17.21,0V330.4a31.35,31.35,0,0,0,17.21,0V307.17Z" style="fill:#407BFF"></path><path d="M204.08,307.17a31.26,31.26,0,0,1-17.21,0V330.4a31.35,31.35,0,0,0,17.21,0V307.17Z" style="fill:#fff;opacity:0.6000000000000001"></path><path d="M186.87,330h0v3.95a22.45,22.45,0,0,0,17.21,0V330A26.3,26.3,0,0,1,186.87,330Z" style="fill:#407BFF"></path><path d="M195.47,263.82s3.08,7.66,3.08,14.31V328.5l2.62-.53V275.16S200.77,268.17,195.47,263.82Z" style="fill:#fff;opacity:0.4"></path><path d="M225.5,281.62v3a31.13,31.13,0,0,0,17.2,0v-3a29.31,29.31,0,0,0-8.6-20.77A29.27,29.27,0,0,0,225.5,281.62Z" style="fill:#407BFF"></path><path d="M225.5,281.62v3a31.13,31.13,0,0,0,17.2,0v-3a29.31,29.31,0,0,0-8.6-20.77A29.27,29.27,0,0,0,225.5,281.62Z" style="fill:#fff;opacity:0.2"></path><path d="M225.5,284.6v22.56a31.22,31.22,0,0,0,17.2,0V284.6A31.13,31.13,0,0,1,225.5,284.6Z" style="fill:#407BFF"></path><path d="M225.5,284.6v22.56a31.22,31.22,0,0,0,17.2,0V284.6A31.13,31.13,0,0,1,225.5,284.6Z" style="fill:#fff;opacity:0.4"></path><path d="M242.7,307.17a31.22,31.22,0,0,1-17.2,0V330.4a31.32,31.32,0,0,0,17.2,0V307.17Z" style="fill:#407BFF"></path><path d="M242.7,307.17a31.22,31.22,0,0,1-17.2,0V330.4a31.32,31.32,0,0,0,17.2,0V307.17Z" style="fill:#fff;opacity:0.6000000000000001"></path><path d="M225.5,330h0v3.95a22.43,22.43,0,0,0,17.2,0V330A26.27,26.27,0,0,1,225.5,330Z" style="fill:#407BFF"></path><path d="M234.25,264.42s3.08,7.66,3.08,14.31V329.1l2.61-.53V275.76S239.55,268.77,234.25,264.42Z" style="fill:#fff;opacity:0.4"></path><path d="M220,289.64H218.2v2.26h-2.44v-2.26H210V288l5.08-6.84h2.62L213,287.61h2.89v-2h2.36v2H220Z" style="fill:#263238"></path><path d="M225.23,112.94c2.85,8.55,3.88,17.67,4.26,27.45-2.35,1.42-2.35,1.42-5.34.92a113,113,0,0,0-2.68-28.15Z" style="fill:#fff;opacity:0.4"></path><path d="M221,109.57a107.73,107.73,0,0,0-4.43-14.73,57.9,57.9,0,0,1,8,14.8Z" style="fill:#fff;opacity:0.4"></path></g><g id="freepik--Audience--inject-5"><polygon points="239.83 287.09 238.93 286.65 248.64 266.91 275.3 266.91 275.3 267.91 249.27 267.91 239.83 287.09" style="fill:#407BFF"></polygon><circle cx="240.11" cy="286.25" r="3.19" style="fill:#263238"></circle><rect x="274.47" y="246.81" width="38.92" height="38.92" rx="5.01" style="fill:#407BFF"></rect><rect x="274.47" y="246.81" width="38.92" height="38.92" rx="5.01" style="opacity:0.4"></rect><path d="M297.61,262c0,2.31-1.37,4.19-3.68,4.19s-3.69-1.88-3.69-4.19,1.38-4.18,3.69-4.18S297.61,259.68,297.61,262Z" style="fill:#407BFF"></path><path d="M297.34,265.41a4.45,4.45,0,0,1-6.82,0c-2.94,1-4.62,3.51-4.62,7.26H302C302,268.92,300.28,266.43,297.34,265.41Z" style="fill:#407BFF"></path><ellipse cx="283.31" cy="266.26" rx="2.15" ry="2.44" style="fill:#407BFF"></ellipse><ellipse cx="304.55" cy="266.26" rx="2.15" ry="2.44" style="fill:#407BFF"></ellipse><path d="M302.8,272.67h6.61c0-2.19-1-3.64-2.68-4.23a2.59,2.59,0,0,1-4,0,3.82,3.82,0,0,0-.68.31A10,10,0,0,1,302.8,272.67Z" style="fill:#407BFF"></path><path d="M285.05,272.67a9.82,9.82,0,0,1,.74-3.92,3.92,3.92,0,0,0-.69-.31,2.58,2.58,0,0,1-4,0c-1.72.59-2.69,2-2.69,4.23Z" style="fill:#407BFF"></path><path d="M297.61,262c0,2.31-1.37,4.19-3.68,4.19s-3.69-1.88-3.69-4.19,1.38-4.18,3.69-4.18S297.61,259.68,297.61,262Z" style="fill:#fff;opacity:0.8"></path><path d="M297.34,265.41a4.45,4.45,0,0,1-6.82,0c-2.94,1-4.62,3.51-4.62,7.26H302C302,268.92,300.28,266.43,297.34,265.41Z" style="fill:#fff;opacity:0.8"></path><ellipse cx="283.31" cy="266.26" rx="2.15" ry="2.44" style="fill:#fff;opacity:0.8"></ellipse><ellipse cx="304.55" cy="266.26" rx="2.15" ry="2.44" style="fill:#fff;opacity:0.8"></ellipse><path d="M302.8,272.67h6.61c0-2.19-1-3.64-2.68-4.23a2.59,2.59,0,0,1-4,0,3.82,3.82,0,0,0-.68.31A10,10,0,0,1,302.8,272.67Z" style="fill:#fff;opacity:0.8"></path><path d="M285.05,272.67a9.82,9.82,0,0,1,.74-3.92,3.92,3.92,0,0,0-.69-.31,2.58,2.58,0,0,1-4,0c-1.72.59-2.69,2-2.69,4.23Z" style="fill:#fff;opacity:0.8"></path></g><g id="freepik--Chart--inject-5"><polygon points="188.19 174.93 178.75 155.75 152.72 155.75 152.72 154.75 179.38 154.75 189.09 174.49 188.19 174.93" style="fill:#407BFF"></polygon><circle cx="187.91" cy="174.09" r="3.19" style="fill:#263238"></circle><rect x="116.42" y="133.46" width="38.92" height="38.92" rx="5.01" style="fill:#407BFF"></rect><rect x="116.42" y="133.46" width="38.92" height="38.92" rx="5.01" style="opacity:0.4"></rect><polygon points="125.88 154.53 130.9 159.55 135.73 151.65 140.71 159.8 146.59 149.7 146.72 150.92 148.12 150.78 147.67 146.44 143.76 148.26 144.36 149.53 145.33 149.07 140.69 157.06 135.73 148.95 130.63 157.3 125.72 152.38 121.32 158.36 122.45 159.19 125.88 154.53" style="fill:#407BFF"></polygon><polygon points="149.39 146.44 149.39 160.77 121.32 160.77 121.32 161.82 150.44 161.82 150.44 146.44 149.39 146.44" style="fill:#407BFF"></polygon><g style="opacity:0.8"><polygon points="125.88 154.53 130.9 159.55 135.73 151.65 140.71 159.8 146.59 149.7 146.72 150.92 148.12 150.78 147.67 146.44 143.76 148.26 144.36 149.53 145.33 149.07 140.69 157.06 135.73 148.95 130.63 157.3 125.72 152.38 121.32 158.36 122.45 159.19 125.88 154.53" style="fill:#fff"></polygon><polygon points="149.39 146.44 149.39 160.77 121.32 160.77 121.32 161.82 150.44 161.82 150.44 146.44 149.39 146.44" style="fill:#fff"></polygon></g></g><g id="freepik--Setting--inject-5"><polygon points="188.19 232.66 178.75 213.48 152.72 213.48 152.72 212.48 179.38 212.48 189.09 232.22 188.19 232.66" style="fill:#407BFF"></polygon><circle cx="187.91" cy="231.82" r="3.19" style="fill:#263238"></circle><rect x="116.47" y="192.37" width="38.92" height="38.92" rx="5.01" style="fill:#407BFF"></rect><rect x="116.47" y="192.37" width="38.92" height="38.92" rx="5.01" style="opacity:0.4"></rect><path d="M139.41,210.06a6.49,6.49,0,0,0,0-.77l2.48-1.87a9.77,9.77,0,0,0-1-2.31l-3.08.43a7.55,7.55,0,0,0-1.09-1.1l.43-3.07a10.43,10.43,0,0,0-2.31-1L133,202.89a6.68,6.68,0,0,0-.78,0,6.51,6.51,0,0,0-.77,0l-1.87-2.48a10.23,10.23,0,0,0-2.31,1l.43,3.07a8.17,8.17,0,0,0-1.1,1.1l-3.07-.43a10.23,10.23,0,0,0-1,2.31l2.48,1.87a7.53,7.53,0,0,0,0,1.55l-2.48,1.87a10.43,10.43,0,0,0,1,2.31l3.07-.43a7.55,7.55,0,0,0,1.1,1.09l-.43,3.08a9.77,9.77,0,0,0,2.31,1l1.87-2.47c.25,0,.51,0,.77,0s.52,0,.78,0l1.87,2.47a9.94,9.94,0,0,0,2.31-1l-.43-3.08a7,7,0,0,0,1.09-1.09l3.08.43a9.94,9.94,0,0,0,1-2.31l-2.48-1.87A6.53,6.53,0,0,0,139.41,210.06Zm-7.22,2.3a2.3,2.3,0,1,1,2.3-2.3A2.3,2.3,0,0,1,132.19,212.36Z" style="fill:#407BFF"></path><path d="M148.06,219.17c0-.13,0-.26,0-.39l1.24-.93a4.66,4.66,0,0,0-.48-1.15l-1.54.21a4,4,0,0,0-.54-.55l.21-1.53a4.66,4.66,0,0,0-1.15-.48l-.94,1.24a2.42,2.42,0,0,0-.39,0,2.36,2.36,0,0,0-.38,0l-.94-1.24a4.66,4.66,0,0,0-1.15.48l.21,1.53a4.76,4.76,0,0,0-.55.55l-1.53-.21a4.66,4.66,0,0,0-.48,1.15l1.24.93c0,.13,0,.26,0,.39s0,.26,0,.39l-1.24.94a4.83,4.83,0,0,0,.48,1.15l1.53-.22a3.57,3.57,0,0,0,.55.55l-.21,1.54a5.08,5.08,0,0,0,1.15.48l.94-1.24.38,0,.39,0,.94,1.24a5.08,5.08,0,0,0,1.15-.48l-.21-1.54a3.13,3.13,0,0,0,.54-.55l1.54.22a4.83,4.83,0,0,0,.48-1.15l-1.24-.94C148.05,219.43,148.06,219.3,148.06,219.17Zm-3.61,2.49a2.49,2.49,0,1,1,2.49-2.49A2.49,2.49,0,0,1,144.45,221.66Z" style="fill:#407BFF"></path><g style="opacity:0.8"><path d="M139.41,210.06a6.49,6.49,0,0,0,0-.77l2.48-1.87a9.77,9.77,0,0,0-1-2.31l-3.08.43a7.55,7.55,0,0,0-1.09-1.1l.43-3.07a10.43,10.43,0,0,0-2.31-1L133,202.89a6.68,6.68,0,0,0-.78,0,6.51,6.51,0,0,0-.77,0l-1.87-2.48a10.23,10.23,0,0,0-2.31,1l.43,3.07a8.17,8.17,0,0,0-1.1,1.1l-3.07-.43a10.23,10.23,0,0,0-1,2.31l2.48,1.87a7.53,7.53,0,0,0,0,1.55l-2.48,1.87a10.43,10.43,0,0,0,1,2.31l3.07-.43a7.55,7.55,0,0,0,1.1,1.09l-.43,3.08a9.77,9.77,0,0,0,2.31,1l1.87-2.47c.25,0,.51,0,.77,0s.52,0,.78,0l1.87,2.47a9.94,9.94,0,0,0,2.31-1l-.43-3.08a7,7,0,0,0,1.09-1.09l3.08.43a9.94,9.94,0,0,0,1-2.31l-2.48-1.87A6.53,6.53,0,0,0,139.41,210.06Zm-7.22,2.3a2.3,2.3,0,1,1,2.3-2.3A2.3,2.3,0,0,1,132.19,212.36Z" style="fill:#fff"></path><path d="M148.06,219.17c0-.13,0-.26,0-.39l1.24-.93a4.66,4.66,0,0,0-.48-1.15l-1.54.21a4,4,0,0,0-.54-.55l.21-1.53a4.66,4.66,0,0,0-1.15-.48l-.94,1.24a2.42,2.42,0,0,0-.39,0,2.36,2.36,0,0,0-.38,0l-.94-1.24a4.66,4.66,0,0,0-1.15.48l.21,1.53a4.76,4.76,0,0,0-.55.55l-1.53-.21a4.66,4.66,0,0,0-.48,1.15l1.24.93c0,.13,0,.26,0,.39s0,.26,0,.39l-1.24.94a4.83,4.83,0,0,0,.48,1.15l1.53-.22a3.57,3.57,0,0,0,.55.55l-.21,1.54a5.08,5.08,0,0,0,1.15.48l.94-1.24.38,0,.39,0,.94,1.24a5.08,5.08,0,0,0,1.15-.48l-.21-1.54a3.13,3.13,0,0,0,.54-.55l1.54.22a4.83,4.83,0,0,0,.48-1.15l-1.24-.94C148.05,219.43,148.06,219.3,148.06,219.17Zm-3.61,2.49a2.49,2.49,0,1,1,2.49-2.49A2.49,2.49,0,0,1,144.45,221.66Z" style="fill:#fff"></path></g></g><g id="freepik--Idea--inject-5"><polygon points="239.83 126.31 238.93 125.87 248.64 106.13 275.3 106.13 275.3 107.13 249.27 107.13 239.83 126.31" style="fill:#407BFF"></polygon><circle cx="240.11" cy="125.47" r="3.19" style="fill:#263238"></circle><rect x="274.47" y="87.17" width="38.92" height="38.92" rx="5.01" style="fill:#407BFF"></rect><rect x="274.47" y="87.17" width="38.92" height="38.92" rx="5.01" style="opacity:0.4"></rect><path d="M293.65,93a9.28,9.28,0,0,0-5.46,16.59,8.31,8.31,0,0,1,3.05,4.76l.1.48h5.18l.1-.47a8.43,8.43,0,0,1,3.1-4.81A9.29,9.29,0,0,0,293.65,93Zm3.24,15.63-1.25-.22,1-5.87L295,103.73l-.89-2.52-.87,2.67-1.89-1,1,5.52-1.25.22-1.56-8.78,3.07,1.94L294,97.24l1.65,4.68,2.73-1.75Z" style="fill:#407BFF"></path><rect x="291.36" y="115.57" width="5.14" height="2.17" style="fill:#407BFF"></rect><path d="M293.86,119.7H294a3.21,3.21,0,0,0,2.51-1.2h-5.14A3.21,3.21,0,0,0,293.86,119.7Z" style="fill:#407BFF"></path><g style="opacity:0.8"><rect x="291.36" y="115.57" width="5.14" height="2.17" style="fill:#fff"></rect><path d="M293.86,119.7H294a3.21,3.21,0,0,0,2.51-1.2h-5.14A3.21,3.21,0,0,0,293.86,119.7Z" style="fill:#fff"></path></g><path d="M293.65,93a9.28,9.28,0,0,0-5.46,16.59,8.31,8.31,0,0,1,3.05,4.76l.1.48h5.18l.1-.47a8.43,8.43,0,0,1,3.1-4.81A9.29,9.29,0,0,0,293.65,93Zm3.24,15.63-1.25-.22,1-5.87L295,103.73l-.89-2.52-.87,2.67-1.89-1,1,5.52-1.25.22-1.56-8.78,3.07,1.94L294,97.24l1.65,4.68,2.73-1.75Z" style="fill:#fff;opacity:0.9"></path></g></svg>